<?xml version="1.0" encoding="UTF-8" standalone="no"?>
<svg width="15px" height="14px" viewBox="0 0 15 14" version="1.1" xmlns="http://www.w3.org/2000/svg" xmlns:xlink="http://www.w3.org/1999/xlink" xmlns:sketch="http://www.bohemiancoding.com/sketch/ns">
    <!-- Generator: Sketch 3.5.1 (25234) - http://www.bohemiancoding.com/sketch -->
    <title>+ copy</title>
    <desc>Created with Sketch.</desc>
    <defs></defs>
    <g id="Page-1" stroke="none" stroke-width="1" fill="none" fill-rule="evenodd" sketch:type="MSPage">
        <g id="Artboard-6" sketch:type="MSArtboardGroup" transform="translate(-1194.000000, -312.000000)" fill="#FFFFFF">
            <g id="Oval-1-+-plus-Copy-5" sketch:type="MSLayerGroup" transform="translate(1172.000000, 290.000000)">
                <path d="M30.559,23.906 C30.559,23.555 30.559,23.285 30.397,23.069 C30.235,22.826 29.911,22.718 29.506,22.718 C29.128,22.718 28.804,22.826 28.642,23.069 C28.48,23.285 28.48,23.555 28.48,23.906 L28.48,28.334 L23.971,28.334 C23.323,28.334 22.945,28.577 22.945,29.306 C22.945,30.008 23.323,30.278 23.971,30.278 L28.48,30.278 L28.48,34.679 C28.48,35.057 28.48,35.327 28.642,35.543 C28.804,35.786 29.128,35.894 29.506,35.894 C29.911,35.894 30.235,35.786 30.397,35.543 C30.559,35.327 30.559,35.057 30.559,34.679 L30.559,30.278 L35.068,30.278 C35.689,30.278 36.067,30.008 36.067,29.306 C36.067,28.577 35.689,28.334 35.068,28.334 L30.559,28.334 L30.559,23.906 Z" id="+-copy" sketch:type="MSShapeGroup"></path>
            </g>
        </g>
    </g>
</svg>